<svg version="1.1" id="Layer_1" xmlns="http://www.w3.org/2000/svg" xmlns:xlink="http://www.w3.org/1999/xlink" x="0px" y="0px"
	 width="100%" viewBox="0 0 439 283" enable-background="new 0 0 439 283" xml:space="preserve">
<path fill="#FAFFFE" opacity="1.000000" stroke="none" 
	d="
M282.773712,162.270844 
	C288.147766,169.620483 290.111237,177.569519 290.044403,186.243195 
	C289.909607,203.731598 289.979126,221.221802 290.010742,238.711182 
	C290.048615,259.664612 272.459503,277.172333 251.748962,277.032776 
	C232.095062,276.900330 212.439209,276.928955 192.784882,277.026123 
	C174.354691,277.117249 157.876953,264.150604 155.005493,245.376831 
	C154.538879,242.326096 154.057236,239.238037 154.040359,236.164719 
	C153.947128,219.175476 154.024857,202.185425 153.988495,185.195755 
	C153.941605,163.291641 171.515793,145.916397 192.986069,145.982346 
	C213.306931,146.044754 233.641327,145.555771 253.944168,146.163879 
	C265.767059,146.518005 275.700958,151.833267 282.773712,162.270844 
M238.499481,270.161804 
	C242.832382,270.160889 247.165634,270.196228 251.498108,270.152679 
	C268.988251,269.976837 282.915863,256.332428 283.103210,238.820129 
	C283.297516,220.657440 283.288483,202.489685 283.108795,184.326721 
	C282.935699,166.831604 269.165039,153.073563 251.600983,152.900543 
	C231.938324,152.706863 212.270721,152.698898 192.608215,152.899658 
	C174.515564,153.084427 160.977081,167.070343 160.940659,185.238678 
	C160.905563,202.736816 160.908157,220.235123 160.939865,237.733276 
	C160.973618,256.354401 174.778549,270.100525 193.504242,270.152740 
	C208.169296,270.193634 222.834564,270.161774 238.499481,270.161804 
z"/>
<path fill="#7FFFE0" opacity="1.000000" stroke="none" 
	d="
M237.999603,270.161987 
	C222.834564,270.161774 208.169296,270.193634 193.504242,270.152740 
	C174.778549,270.100525 160.973618,256.354401 160.939865,237.733276 
	C160.908157,220.235123 160.905563,202.736816 160.940659,185.238678 
	C160.977081,167.070343 174.515564,153.084427 192.608215,152.899658 
	C212.270721,152.698898 231.938324,152.706863 251.600983,152.900543 
	C269.165039,153.073563 282.935699,166.831604 283.108795,184.326721 
	C283.288483,202.489685 283.297516,220.657440 283.103210,238.820129 
	C282.915863,256.332428 268.988251,269.976837 251.498108,270.152679 
	C247.165634,270.196228 242.832382,270.160889 237.999603,270.161987 
M236.929443,218.425842 
	C244.335098,205.554108 251.740768,192.682388 259.368683,179.424332 
	C234.129120,179.424332 209.795975,179.424332 184.703049,179.424332 
	C197.234192,201.109955 209.453079,222.255219 222.067337,244.084671 
	C227.254288,235.118271 231.901352,227.085144 236.929443,218.425842 
z"/>
<path fill="#541D83" opacity="1.000000" stroke="none" 
	d="
M236.738922,218.738922 
	C231.901352,227.085144 227.254288,235.118271 222.067337,244.084671 
	C209.453079,222.255219 197.234192,201.109955 184.703049,179.424332 
	C209.795975,179.424332 234.129120,179.424332 259.368683,179.424332 
	C251.740768,192.682388 244.335098,205.554108 236.738922,218.738922 
z"/>
</svg>